<svg width="266" height="193" viewBox="0 0 266 193" fill="none" xmlns="http://www.w3.org/2000/svg">
<path d="M263.765 192.207L265.451 190.525V192.207H263.765ZM243.778 192.207L265.451 170.583V173.651L246.852 192.207H243.778ZM223.791 192.207L248.291 167.765L249.829 169.298L226.865 192.207H223.791ZM203.803 192.207L262.708 133.434L264.246 134.968L206.88 192.207H203.803ZM183.816 192.207L204.323 171.752L205.861 173.286L186.892 192.212L183.816 192.207ZM163.83 192.207L190.863 165.238L192.401 166.772L166.904 192.207H163.83ZM143.843 192.207L185.681 150.466L187.219 152.001L146.917 192.207H143.843ZM123.856 192.207L151.272 164.854L152.81 166.388L126.93 192.207H123.856ZM83.881 192.207L90.9661 185.138L92.5043 186.672L86.9516 192.207H83.881ZM63.8942 192.207L79.0403 177.095L80.5773 178.629L66.9682 192.207H63.8942ZM43.9073 192.207L57.6924 178.454L59.2294 179.987L46.9813 192.207H43.9073ZM23.9193 192.207L81.7578 134.498L83.2959 136.032L26.9945 192.207H23.9193ZM3.93242 192.207L50.9913 145.256L52.5294 146.791L7.00645 192.207H3.93242ZM108.598 187.488L189.672 106.602L191.21 108.135L110.136 189.022L108.598 187.488ZM0.330444 175.859L22.8714 153.37L24.4095 154.904L0.330444 178.927V175.859ZM99.1929 176.931L133.576 142.62L135.114 144.153L100.725 178.464L99.1929 176.931ZM65.918 170.246L100.307 135.936L101.844 137.471L67.455 171.779L65.918 170.246ZM87.267 168.888L168.34 88.0015L169.878 89.5362L88.804 170.422L87.267 168.888ZM212.551 163.539L265.451 110.761V113.829L214.088 165.072L212.551 163.539ZM256.517 159.556L265.451 150.643V153.71L258.054 161.09L256.517 159.556ZM0.330444 155.918L17.7175 138.572L19.2557 140.106L0.330444 158.985V155.918ZM199.089 157.027L220.507 135.658L222.044 137.193L200.627 158.562L199.089 157.027ZM159.499 156.646L233.727 82.5895L235.265 84.1242L161.037 158.179L159.499 156.646ZM31.0981 145.161L105.326 71.1061L106.863 72.6396L32.6363 146.695L31.0981 145.161ZM193.906 142.256L265.451 70.8787V73.9458L195.444 143.791L193.906 142.256ZM0.330444 135.976L41.7829 94.6168L43.3211 96.1515L0.330444 139.045V135.976ZM59.218 137.048L93.6071 102.738L95.1441 104.273L60.7561 138.583L59.218 137.048ZM141.809 134.412L216.037 60.3563L217.575 61.8899L143.347 135.945L141.809 134.412ZM25.9443 130.364L60.3333 96.0532L61.8703 97.5879L27.4813 131.898L25.9443 130.364ZM108.536 127.727L182.764 53.6713L184.302 55.2049L110.074 129.261L108.536 127.727ZM228.735 127.451L265.452 90.8195V93.8877L230.272 128.986L228.735 127.451ZM89.9857 126.294L124.375 91.9885L125.912 93.522L91.5227 127.826L89.9857 126.294ZM1.93031 114.444L23.3479 93.0752L24.8861 94.6088L3.46846 115.978L1.93031 114.444ZM197.899 98.3878L232.288 64.0782L233.826 65.6118L199.436 99.9214L197.899 98.3878ZM0.330444 96.0955L25.0072 71.4763L26.5453 73.011L0.330444 99.1637V96.0955ZM101.835 94.53L176.063 20.4748L177.601 22.0083L103.373 96.0647L101.835 94.53ZM68.5612 87.8449L142.789 13.7897L144.327 15.3244L70.0982 89.3796L68.5612 87.8449ZM50.0119 86.4108L84.401 52.1069L85.938 53.6405L51.5478 87.9455L50.0119 86.4108ZM31.5712 84.8681L112.645 3.98161L114.184 5.51631L33.1082 86.4016L31.5712 84.8681ZM132.603 83.7745L213.676 2.88915L215.214 4.42271L134.14 85.3092L132.603 83.7745ZM176.569 79.7909L250.797 5.73571L252.335 7.26927L178.106 81.3267L176.569 79.7909ZM0.330444 76.1536L73.0522 3.59994L74.5904 5.14035L0.330444 79.2218V76.1536ZM241.953 74.3812L265.451 50.9379V54.0061L243.49 75.9159L241.953 74.3812ZM33.2339 63.268L96.4217 0.226571H99.4957L34.7709 64.8027L33.2339 63.268ZM113.554 62.8978L147.943 28.5871L149.481 30.1218L115.092 64.4314L113.554 62.8978ZM0.330444 56.2139L56.4479 0.226571H59.5254L0.330444 59.2822V56.2139ZM240.516 55.8711L265.451 30.9971V34.0654L242.053 57.4081L240.516 55.8711ZM224.264 52.1435L245.682 30.7743L247.219 32.3078L225.797 53.6816L224.264 52.1435ZM190.99 45.4585L236.331 0.226571H239.406L192.528 46.9966L190.99 45.4585ZM92.6277 43.8895L136.395 0.223145H139.471L94.1647 45.4265L92.6277 43.8895ZM0.330444 36.2731L13.6584 22.9751L15.1966 24.5086L0.330444 39.3402V36.2731ZM253.909 22.5728L265.451 11.0563V14.1234L255.446 24.1098L253.909 22.5728ZM156.171 20.3799L176.369 0.226571H178.806L179.125 0.545394L157.708 21.9146L156.171 20.3799ZM0.330444 16.3312L16.4731 0.226571H19.5482L0.330444 19.3994V16.3312ZM21.8863 14.7656L36.4599 0.226571H39.5351L23.4222 16.3003L21.8863 14.7656ZM184.29 12.2653L196.357 0.226571H199.432L185.833 13.7989L184.29 12.2653ZM151.015 5.5803L156.386 0.226571H159.461L152.556 7.115L151.015 5.5803Z" fill="#FFDA54"/>
</svg>
