<svg width="88" height="65" viewBox="0 0 88 65" fill="none" xmlns="http://www.w3.org/2000/svg">
<path d="M35.6422 8.64223C37.6193 6.6652 37.6193 3.4598 35.6422 1.48277C33.6652 -0.494257 30.4598 -0.494257 28.4828 1.48277L1.48277 28.4828C0.494257 29.4713 0 30.7669 0 32.0625C0 32.7489 0.136614 33.4034 0.384136 34.0003C0.631185 34.5974 0.997397 35.1569 1.48277 35.6422L28.4828 62.6422C30.4598 64.6193 33.6652 64.6193 35.6422 62.6422C37.6193 60.6652 37.6193 57.4598 35.6422 55.4828L17.2845 37.125H82.6875C85.4834 37.125 87.75 34.8584 87.75 32.0625C87.75 29.2666 85.4834 27 82.6875 27H17.2845L35.6422 8.64223Z" fill="#FFDA54" fill-opacity="0.7"/>
</svg>
