<svg width="261" height="261" viewBox="0 0 261 261" fill="none" xmlns="http://www.w3.org/2000/svg">
<path d="M66.7858 67.5495L0.380879 134.031L0.304697 135.402L0.228516 136.773L67.9793 68.9716C105.232 31.6934 135.781 1.14461 135.832 1.06844C135.882 1.01764 135.324 0.992249 134.562 0.992249L133.191 1.04305L66.7858 67.5495Z" fill="#FFDA54"/>
<path d="M119.351 1.39878C118.513 1.50035 113.079 6.85846 59.447 60.4903L0.482483 119.455L0.558664 120.547L0.634846 121.639L23.3116 98.835C35.8053 86.265 62.8244 59.1698 83.368 38.6008C103.937 18.0571 120.621 1.24641 120.494 1.27181C120.341 1.2972 119.834 1.34799 119.351 1.39878Z" fill="#FFDA54"/>
<path d="M73.9976 74.7615C-3.50441 152.441 0.812544 147.997 1.44739 149.724C1.62515 150.207 9.6496 142.284 75.5466 76.3867C116.177 35.7565 149.367 2.46521 149.316 2.41441C149.24 2.36363 148.605 2.23666 147.894 2.13509L146.599 1.98273L73.9976 74.7615Z" fill="#FFDA54"/>
<path d="M101.956 3.93791C101.652 3.9887 79.3558 26.1068 52.3875 53.1004C9.8782 95.6097 3.30119 102.288 3.07265 103.152C2.92028 103.71 2.8441 104.193 2.8695 104.244C2.92028 104.269 25.0891 82.1256 52.1082 54.9796C79.1526 27.8589 101.728 5.233 102.261 4.69973C103.175 3.81094 103.124 3.70937 101.956 3.93791Z" fill="#FFDA54"/>
<path d="M81.0571 82.0496L3.27576 159.831L3.55509 161.075C3.70745 161.735 3.88521 162.421 3.98678 162.548C4.11375 162.777 161.759 5.36015 161.759 5.00464C161.759 4.82689 159.753 4.26822 159.169 4.26822C158.991 4.26822 123.846 39.2609 81.0571 82.0496Z" fill="#FFDA54"/>
<path d="M88.3198 89.2868L6.39923 171.233L6.9579 172.858L7.51656 174.458L90.2497 91.5468C135.756 45.9395 172.958 8.53432 172.932 8.40735C172.907 8.22958 172.323 7.97565 170.774 7.49316C170.342 7.34081 156.172 21.4344 88.3198 89.2868Z" fill="#FFDA54"/>
<path d="M80.8794 10.5151C79.8383 10.9468 10.0052 80.8815 9.64966 81.8211C9.4973 82.2274 9.42112 82.5829 9.47191 82.6337C9.52269 82.6845 25.8256 66.4324 45.6835 46.5236C65.5669 26.6148 81.7682 10.2866 81.7428 10.2612C81.692 10.2104 81.3111 10.3374 80.8794 10.5151Z" fill="#FFDA54"/>
<path d="M95.5063 96.5493L10.3099 181.746L10.9955 183.219C11.351 184.031 11.7573 184.717 11.8843 184.768C12.0113 184.793 27.6285 169.252 46.5723 150.232C65.5415 131.187 104.216 92.4609 132.505 64.1467L183.928 12.6988L182.633 12.0386C181.922 11.683 181.185 11.3783 181.007 11.3783C180.83 11.3783 142.358 49.6976 95.5063 96.5493Z" fill="#FFDA54"/>
<path d="M102.693 103.761L15.0585 191.548L15.7696 192.995C16.1759 193.783 16.6076 194.519 16.7599 194.595C16.9885 194.747 193.476 18.3364 193.679 17.7523C193.755 17.6 190.886 15.9494 190.53 15.9494C190.428 15.9494 150.89 55.4622 102.693 103.761Z" fill="#FFDA54"/>
<path d="M129.128 91.6737C90.4529 130.399 50.1528 170.776 39.5636 181.39L20.3151 200.69L21.407 202.416L22.5243 204.118L112.698 113.919C162.292 64.2991 202.846 23.5674 202.821 23.4404C202.77 23.1865 199.977 21.2819 199.621 21.2819C199.519 21.2819 167.803 52.9735 129.128 91.6737Z" fill="#FFDA54"/>
<path d="M117.091 118.134L26.1049 209.171L27.4253 210.822C28.1618 211.736 28.822 212.498 28.8982 212.498C29.1267 212.498 211.531 30.0938 211.531 29.8652C211.531 29.7128 208.382 27.1227 208.179 27.1227C208.128 27.1227 167.142 68.083 117.091 118.134Z" fill="#FFDA54"/>
<path d="M124.328 125.371L32.6819 217.018L33.4691 218.008C33.8754 218.541 34.6118 219.354 35.0943 219.786L35.9577 220.624L127.807 128.723L219.682 36.8485L217.981 35.274C217.041 34.4361 216.203 33.725 216.127 33.725C216.051 33.725 174.735 74.9646 124.328 125.371Z" fill="#FFDA54"/>
<path d="M131.54 132.634L39.7413 224.458L41.6205 226.287L43.4996 228.115L135.121 136.342C185.527 85.884 226.767 44.4666 226.767 44.2889C226.767 44.0096 223.72 40.8353 223.466 40.8353C223.39 40.8353 182.023 82.1511 131.54 132.634Z" fill="#FFDA54"/>
<path d="M138.904 139.668C88.7007 189.948 47.588 231.188 47.5372 231.289C47.4357 231.518 51.2955 234.59 51.7018 234.59C51.8542 234.59 64.0686 222.452 78.8225 207.622C93.6017 192.767 134.486 151.806 169.707 116.585L233.7 52.5672L232.227 50.6373C231.44 49.5707 230.627 48.6058 230.475 48.4788C230.297 48.3264 200.434 78.0626 138.904 139.668Z" fill="#FFDA54"/>
<path d="M179.027 113.893C147.564 145.432 106.908 186.164 88.6753 204.397L55.5363 237.587L57.8472 239.136C59.1168 239.974 60.285 240.685 60.4373 240.685C60.8436 240.685 239.591 61.6328 239.566 61.2518C239.515 60.8202 236.696 56.5794 236.442 56.5794C236.341 56.5794 210.49 82.3795 179.027 113.893Z" fill="#FFDA54"/>
<path d="M153.303 154.041C104.47 202.873 64.5004 242.97 64.5004 243.097C64.5004 243.25 65.7193 244.037 67.1921 244.849L69.9093 246.322L157.594 158.637L245.305 70.927L244.517 69.4541C244.111 68.6415 243.375 67.3718 242.918 66.61L242.105 65.2387L153.303 154.041Z" fill="#FFDA54"/>
<path d="M160.388 161.431L73.5914 248.227L76.8418 249.674L80.0668 251.147L164.984 166.23C211.658 119.556 249.875 81.1862 249.875 80.983C249.875 80.7037 247.438 74.8885 247.235 74.6853C247.209 74.66 208.128 113.69 160.388 161.431Z" fill="#FFDA54"/>
<path d="M167.625 168.668L83.7489 252.544L84.8662 252.95C85.4757 253.179 87.1263 253.763 88.5229 254.245L91.1131 255.134L172.526 173.645C217.295 128.85 253.939 92.0801 253.939 91.9277C253.939 91.6992 251.678 84.9698 251.551 84.8428C251.526 84.8174 213.765 122.527 167.625 168.668Z" fill="#FFDA54"/>
<path d="M174.811 175.88L94.7952 256.048L95.6332 256.353C96.3443 256.607 100.28 257.597 102.515 258.08C102.947 258.181 116.583 244.646 179.966 181.111C222.247 138.703 256.884 103.837 256.935 103.584C256.986 103.33 256.656 101.73 256.199 99.9776C255.767 98.2508 255.361 96.5748 255.284 96.2447C255.208 95.94 255.081 95.686 254.98 95.686C254.903 95.686 218.819 131.771 174.811 175.88Z" fill="#FFDA54"/>
<path d="M182.023 183.117L106.426 258.842L108.127 259.146C110.768 259.654 115.618 260.238 115.771 260.111C115.847 260.035 148.148 227.76 187.559 188.348L259.17 116.712L258.967 115.011C258.611 112.04 257.951 108.002 257.773 107.697C257.671 107.494 229.611 135.402 182.023 183.117Z" fill="#FFDA54"/>
<path d="M189.311 190.177C139.514 239.974 119.326 260.314 119.554 260.467C119.884 260.67 125.319 261 128.34 261H129.89L194.974 195.916L260.058 130.831L259.804 125.549C259.652 122.629 259.5 120.216 259.474 120.166C259.424 120.115 227.834 151.629 189.311 190.177Z" fill="#FFDA54"/>
<path d="M196.294 197.642L132.962 260.975L136.111 260.848C137.863 260.771 140.758 260.543 142.561 260.365L145.811 260.06L202.389 203.483L258.941 146.931L259.246 144.341C259.576 141.674 259.931 134.285 259.754 134.285C259.703 134.285 231.135 162.802 196.294 197.642Z" fill="#FFDA54"/>
<path d="M203.481 204.854C173.415 234.946 148.859 259.603 148.884 259.629C149.036 259.781 157.594 258.08 161.378 257.166L164.425 256.429L209.906 210.898L255.411 165.392L256.046 162.726C256.808 159.602 257.291 157.317 258.002 153.457C258.56 150.334 258.586 150.004 258.332 150.054C258.205 150.08 233.547 174.737 203.481 204.854Z" fill="#FFDA54"/>
<path d="M210.972 211.914C187.127 235.759 167.676 255.312 167.726 255.363C167.853 255.515 174.964 253.077 178.189 251.757C179.763 251.147 182.734 249.852 184.791 248.913L188.549 247.211L217.067 218.745C234.182 201.655 245.812 189.872 246.143 189.262C248.098 185.606 250.993 178.8 252.77 173.721C253.685 171.055 254.472 168.566 254.37 168.566C254.319 168.566 234.792 188.069 210.972 211.914Z" fill="#FFDA54"/>
<path d="M218.006 219.1C203.76 233.346 192.206 245.002 192.333 245.002C192.79 245.002 197.412 242.259 201.246 239.745C215.721 230.197 228.215 217.856 237.839 203.585C240.073 200.233 244.136 193.478 243.984 193.325C243.933 193.275 232.227 204.88 218.006 219.1Z" fill="#FFDA54"/>
</svg>
