<svg width="240" height="240" viewBox="0 0 240 240" fill="none" xmlns="http://www.w3.org/2000/svg">
<circle cx="135.987" cy="38.8936" r="6.46234" fill="#FFDA54"/>
<circle cx="168.299" cy="38.8936" r="6.46234" fill="#FFDA54"/>
<circle cx="168.299" cy="6.58178" r="6.46234" fill="#FFDA54"/>
<circle cx="135.987" cy="6.58178" r="6.46234" fill="#FFDA54"/>
<circle cx="200.61" cy="38.8936" r="6.46234" fill="#FFDA54"/>
<circle cx="232.922" cy="38.8936" r="6.46234" fill="#FFDA54"/>
<circle cx="232.922" cy="6.58178" r="6.46234" fill="#FFDA54"/>
<circle cx="200.61" cy="6.58178" r="6.46234" fill="#FFDA54"/>
<circle cx="200.61" cy="103.517" r="6.46234" fill="#FFDA54"/>
<circle cx="232.922" cy="103.517" r="6.46234" fill="#FFDA54"/>
<circle cx="232.922" cy="71.2052" r="6.46234" fill="#FFDA54"/>
<circle cx="200.61" cy="71.2052" r="6.46234" fill="#FFDA54"/>
<circle cx="135.987" cy="103.517" r="6.46234" fill="#FFDA54"/>
<circle cx="168.299" cy="103.517" r="6.46234" fill="#FFDA54"/>
<circle cx="168.299" cy="71.2052" r="6.46234" fill="#FFDA54"/>
<circle cx="135.987" cy="71.2052" r="6.46234" fill="#FFDA54"/>
<circle cx="6.74023" cy="168.14" r="6.46234" fill="#FFDA54"/>
<circle cx="39.0519" cy="168.14" r="6.46234" fill="#FFDA54"/>
<circle cx="39.0519" cy="135.829" r="6.46234" fill="#FFDA54"/>
<circle cx="6.74023" cy="135.829" r="6.46234" fill="#FFDA54"/>
<circle cx="71.3636" cy="168.14" r="6.46234" fill="#FFDA54"/>
<circle cx="103.675" cy="168.14" r="6.46234" fill="#FFDA54"/>
<circle cx="103.675" cy="135.829" r="6.46234" fill="#FFDA54"/>
<circle cx="71.3636" cy="135.829" r="6.46234" fill="#FFDA54"/>
<circle cx="71.3636" cy="232.764" r="6.46234" fill="#FFDA54"/>
<circle cx="103.675" cy="232.764" r="6.46234" fill="#FFDA54"/>
<circle cx="103.675" cy="200.452" r="6.46234" fill="#FFDA54"/>
<circle cx="71.3636" cy="200.452" r="6.46234" fill="#FFDA54"/>
<circle cx="6.74023" cy="232.764" r="6.46234" fill="#FFDA54"/>
<circle cx="39.0519" cy="232.764" r="6.46234" fill="#FFDA54"/>
<circle cx="39.0519" cy="200.452" r="6.46234" fill="#FFDA54"/>
<circle cx="6.74023" cy="200.452" r="6.46234" fill="#FFDA54"/>
<circle cx="6.74023" cy="38.8936" r="6.46234" fill="#FFDA54"/>
<circle cx="39.0519" cy="38.8936" r="6.46234" fill="#FFDA54"/>
<circle cx="39.0519" cy="6.58178" r="6.46234" fill="#FFDA54"/>
<circle cx="6.74023" cy="6.58184" r="6.46234" fill="#FFDA54"/>
<circle cx="71.3636" cy="38.8936" r="6.46234" fill="#FFDA54"/>
<circle cx="103.675" cy="38.8936" r="6.46234" fill="#FFDA54"/>
<circle cx="103.675" cy="6.58178" r="6.46234" fill="#FFDA54"/>
<circle cx="71.3636" cy="6.58178" r="6.46234" fill="#FFDA54"/>
<circle cx="71.3636" cy="103.517" r="6.46234" fill="#FFDA54"/>
<circle cx="103.675" cy="103.517" r="6.46234" fill="#FFDA54"/>
<circle cx="103.675" cy="71.2052" r="6.46234" fill="#FFDA54"/>
<circle cx="71.3636" cy="71.2052" r="6.46234" fill="#FFDA54"/>
<circle cx="6.74023" cy="103.517" r="6.46234" fill="#FFDA54"/>
<circle cx="39.0519" cy="103.517" r="6.46234" fill="#FFDA54"/>
<circle cx="39.0519" cy="71.2052" r="6.46234" fill="#FFDA54"/>
<circle cx="6.74023" cy="71.2052" r="6.46234" fill="#FFDA54"/>
<circle cx="135.987" cy="168.14" r="6.46234" fill="#FFDA54"/>
<circle cx="168.299" cy="168.14" r="6.46234" fill="#FFDA54"/>
<circle cx="168.299" cy="135.829" r="6.46234" fill="#FFDA54"/>
<circle cx="135.987" cy="135.829" r="6.46234" fill="#FFDA54"/>
<circle cx="200.61" cy="168.14" r="6.46234" fill="#FFDA54"/>
<circle cx="232.922" cy="168.14" r="6.46234" fill="#FFDA54"/>
<circle cx="232.922" cy="135.829" r="6.46234" fill="#FFDA54"/>
<circle cx="200.61" cy="135.829" r="6.46234" fill="#FFDA54"/>
<circle cx="200.61" cy="232.764" r="6.46234" fill="#FFDA54"/>
<circle cx="232.922" cy="232.764" r="6.46234" fill="#FFDA54"/>
<circle cx="232.922" cy="200.452" r="6.46234" fill="#FFDA54"/>
<circle cx="200.61" cy="200.452" r="6.46234" fill="#FFDA54"/>
<circle cx="135.987" cy="232.764" r="6.46234" fill="#FFDA54"/>
<circle cx="168.299" cy="232.764" r="6.46234" fill="#FFDA54"/>
<circle cx="168.299" cy="200.452" r="6.46234" fill="#FFDA54"/>
<circle cx="135.987" cy="200.452" r="6.46234" fill="#FFDA54"/>
</svg>
