<?xml version="1.0" standalone="no"?>
<!DOCTYPE svg PUBLIC "-//W3C//DTD SVG 20010904//EN"
 "http://www.w3.org/TR/2001/REC-SVG-20010904/DTD/svg10.dtd">
<svg version="1.0" xmlns="http://www.w3.org/2000/svg"
 width="7336.000000pt" height="1301.000000pt" viewBox="0 0 7336.000000 1301.000000"
 preserveAspectRatio="xMidYMid meet">

<g transform="translate(0.000000,1301.000000) scale(0.100000,-0.100000)"
fill="#000000" stroke="none">
<path d="M54280 11051 c-360 -291 -559 -672 -611 -1170 -15 -144 -7 -517 16
-701 27 -231 84 -554 126 -722 91 -361 211 -643 467 -1098 209 -371 240 -447
249 -605 9 -163 -27 -264 -196 -554 -216 -369 -312 -595 -395 -926 -76 -304
-119 -731 -120 -1200 -1 -294 5 -340 76 -544 73 -213 326 -763 453 -986 302
-531 675 -867 1166 -1050 127 -47 134 -44 18 8 -224 101 -437 252 -629 446
-199 200 -355 430 -520 766 -485 985 -559 2095 -200 3008 97 248 283 579 425
757 121 152 159 235 139 307 -6 21 -62 121 -126 223 -382 612 -574 1013 -678
1415 -31 121 -98 506 -129 740 -59 449 -50 795 29 1099 77 296 197 507 419
738 62 65 112 118 110 118 -2 0 -42 -31 -89 -69z"/>
<path d="M58220 10477 c3 -3 50 -17 105 -32 55 -15 190 -56 300 -92 435 -142
634 -238 789 -384 335 -313 351 -780 54 -1519 -69 -172 -176 -389 -239 -485
-92 -138 -226 -266 -352 -336 -63 -35 -60 -36 29 -5 147 50 256 119 360 228
88 93 109 129 234 412 164 373 227 543 276 741 52 215 70 498 39 620 -49 189
-188 357 -375 454 -81 43 -342 138 -665 244 -242 79 -571 171 -555 154z"/>
<path d="M25743 7162 c-80 -69 -147 -189 -241 -437 -224 -587 -1725 -4679
-1775 -4840 -40 -127 -51 -220 -37 -291 l12 -59 20 50 c11 28 204 552 428
1165 504 1376 872 2378 1200 3265 356 963 431 1167 428 1171 -2 1 -17 -10 -35
-24z"/>
<path d="M44468 7133 c-106 -112 -121 -148 -438 -1053 -557 -1589 -843 -2397
-902 -2545 -84 -211 -180 -360 -259 -400 -24 -13 -27 -18 -20 -42 13 -43 86
-225 108 -268 l20 -38 10 29 c6 16 115 322 243 679 474 1330 1304 3695 1296
3695 -2 0 -28 -26 -58 -57z"/>
<path d="M45815 7132 c-38 -57 -62 -127 -75 -217 -8 -58 -10 -767 -8 -2625 3
-2369 5 -2549 21 -2608 19 -71 58 -152 81 -171 14 -12 16 -9 17 25 3 222 -1
5628 -5 5631 -2 3 -16 -13 -31 -35z"/>
<path d="M39187 7123 c-41 -59 -67 -151 -78 -278 -6 -70 -9 -1010 -7 -2600 3
-2264 5 -2496 20 -2556 19 -77 56 -155 87 -183 l21 -19 -1 2794 c0 1537 -4
2814 -7 2838 l-7 44 -28 -40z"/>
<path d="M69898 7083 c-40 -39 -102 -115 -143 -178 -40 -60 -267 -447 -505
-860 -475 -824 -540 -934 -614 -1045 -63 -96 -158 -190 -219 -219 l-48 -23 24
-42 c14 -22 39 -67 57 -99 18 -32 36 -55 40 -50 5 4 48 78 97 163 49 85 369
639 710 1230 714 1237 687 1190 678 1190 -4 0 -38 -30 -77 -67z"/>
<path d="M40564 7083 c-34 -117 -15 -191 197 -774 317 -873 1077 -2992 1454
-4054 193 -544 235 -635 340 -734 31 -29 58 -51 61 -48 4 4 -59 191 -226 667
-190 543 -1205 3370 -1518 4230 -238 654 -282 770 -288 770 -2 0 -11 -26 -20
-57z"/>
<path d="M49753 7092 c-37 -55 -58 -115 -74 -209 -8 -49 -11 -780 -12 -2613
-1 -2290 1 -2553 15 -2627 17 -87 51 -172 86 -213 l21 -25 1 2868 c0 1577 -1
2867 -2 2867 -2 0 -17 -21 -35 -48z"/>
<path d="M60947 7094 c-41 -60 -64 -137 -77 -254 -16 -140 -16 -4976 0 -5125
13 -123 30 -183 72 -255 l33 -55 6 70 c8 91 8 5301 0 5505 l-6 155 -28 -41z"/>
<path d="M34876 7098 c-10 -40 -6 -112 9 -138 13 -23 14 -17 8 65 -3 50 -7 91
-8 93 -1 1 -5 -8 -9 -20z"/>
<path d="M66126 7075 c-20 -52 5 -167 63 -289 45 -97 308 -555 1305 -2276 246
-425 344 -616 389 -756 71 -221 70 -202 77 -1184 6 -770 9 -894 23 -955 19
-79 57 -163 87 -190 l20 -18 0 1114 c0 1181 1 1152 -47 1260 -11 25 -59 110
-106 190 -101 172 -901 1555 -1404 2429 -436 757 -399 695 -407 675z"/>
<path d="M8823 6817 c-48 -52 -98 -201 -91 -271 2 -24 16 4 61 128 31 88 56
161 54 163 -2 1 -13 -7 -24 -20z"/>
<path d="M30199 6782 c-391 -295 -733 -691 -923 -1070 -156 -311 -258 -661
-308 -1057 -18 -149 -15 -551 6 -710 88 -675 355 -1224 831 -1714 259 -266
550 -482 857 -637 99 -50 298 -134 316 -134 4 0 -56 33 -133 73 -904 471
-1539 1283 -1714 2190 -75 386 -80 782 -16 1163 79 468 266 938 492 1237 198
262 377 453 618 664 33 29 58 52 55 52 -3 0 -39 -25 -81 -57z"/>
<path d="M32649 6734 c208 -61 426 -158 646 -286 168 -97 257 -142 324 -162
30 -9 56 -15 57 -13 7 6 -175 127 -291 193 -213 122 -456 219 -678 268 -143
32 -167 32 -58 0z"/>
<path d="M35954 6699 c122 -64 201 -176 239 -344 21 -89 21 -109 27 -2360 5
-2128 7 -2274 23 -2329 19 -63 62 -149 84 -167 11 -10 13 408 15 2490 2 1375
3 2554 3 2619 l0 117 -225 2 -225 2 59 -30z"/>
<path d="M46650 6720 c0 -13 11 -13 30 0 12 8 11 10 -7 10 -13 0 -23 -4 -23
-10z"/>
<path d="M58629 6648 c-23 -40 -47 -80 -54 -88 -7 -8 -40 -68 -74 -133 l-63
-118 33 20 c129 79 275 36 455 -132 244 -228 462 -580 585 -945 114 -335 83
-527 -96 -608 -103 -47 -144 -49 -900 -49 -651 0 -715 1 -775 18 -120 33 -173
87 -174 178 l-1 46 -89 -146 c-48 -80 -97 -161 -108 -179 l-20 -33 143 4 c703
22 1746 32 2199 21 l285 -7 -7 134 c-41 826 -509 1629 -1183 2032 -52 32 -99
57 -104 57 -6 0 -29 -33 -52 -72z"/>
<path d="M55932 6691 c-103 -36 -288 -180 -472 -367 -69 -70 -106 -111 -82
-90 51 44 133 97 182 117 19 8 64 14 100 14 86 -1 149 -33 226 -119 69 -75
109 -140 405 -666 343 -610 364 -656 357 -781 -3 -65 -6 -72 -43 -109 -86 -86
-175 -97 -825 -106 -786 -10 -939 11 -1035 143 -16 23 -33 42 -36 42 -7 1 -41
-231 -34 -237 19 -19 341 -25 1397 -26 l1177 -2 -18 31 c-10 16 -171 300 -356
630 -878 1560 -870 1545 -883 1545 -4 -1 -31 -9 -60 -19z"/>
<path d="M51723 6665 c103 -38 184 -91 267 -175 97 -97 139 -163 183 -287 29
-82 31 -98 32 -223 0 -115 -3 -145 -23 -204 -55 -165 -143 -282 -276 -368 -33
-21 -54 -38 -48 -38 27 0 182 55 227 80 143 81 243 225 279 403 71 342 -121
701 -430 807 -42 15 -82 20 -153 19 -94 0 -95 -1 -58 -14z"/>
<path d="M61790 6670 c0 -13 11 -13 30 0 12 8 11 10 -7 10 -13 0 -23 -4 -23
-10z"/>
<path d="M9115 6518 c-26 -68 -50 -129 -53 -137 -4 -11 1 -12 24 -7 66 17 97
73 97 174 -1 41 -5 78 -10 83 -6 6 -27 -35 -58 -113z"/>
<path d="M63084 6560 c851 -283 1423 -1010 1557 -1980 17 -123 18 -516 1 -635
-84 -588 -323 -1072 -718 -1456 -109 -106 -214 -191 -317 -258 -37 -24 -67
-45 -67 -48 0 -9 154 78 250 141 377 247 700 666 861 1118 192 537 191 1169
-3 1714 -53 152 -169 385 -255 514 -97 146 -173 238 -299 360 -286 277 -576
438 -981 541 -85 21 -159 39 -166 39 -6 -1 55 -23 137 -50z"/>
<path d="M26182 6049 c-5 -13 -35 -100 -67 -193 -56 -160 -58 -170 -41 -180
127 -74 202 -190 309 -472 75 -197 92 -272 92 -404 0 -131 -14 -176 -80 -249
l-37 -41 206 0 c113 0 206 3 206 6 0 3 -27 77 -59 163 -33 86 -118 320 -189
521 -167 469 -312 853 -328 869 -2 2 -7 -7 -12 -20z"/>
<path d="M51778 4663 c7 -3 16 -2 19 1 4 3 -2 6 -13 5 -11 0 -14 -3 -6 -6z"/>
<path d="M51900 4626 c220 -75 381 -176 546 -340 208 -209 331 -438 396 -740
29 -136 31 -416 5 -551 -80 -395 -297 -724 -618 -936 -37 -24 -75 -50 -85 -56
-40 -27 65 20 152 68 312 173 540 444 649 773 54 162 68 276 62 489 -6 194
-18 270 -67 419 -91 271 -249 485 -495 671 -150 112 -296 176 -495 217 -141
29 -159 24 -50 -14z"/>
<path d="M9835 4401 c-37 -23 -101 -89 -93 -96 3 -3 65 -4 137 -3 l132 3 -30
42 c-29 40 -75 73 -103 73 -7 0 -26 -9 -43 -19z"/>
<path d="M7928 4362 c-56 -85 -89 -172 -102 -272 -8 -63 4 -39 63 122 27 73
54 145 60 161 14 37 8 34 -21 -11z"/>
<path d="M57210 4233 c-198 -355 -218 -393 -211 -393 4 0 11 4 16 9 23 21 88
30 134 19 61 -15 158 -112 233 -234 72 -117 528 -923 587 -1039 87 -168 106
-282 64 -377 -83 -186 -406 -277 -943 -265 -405 8 -696 73 -839 186 -48 38
-90 117 -98 181 l-6 50 -58 -95 c-33 -52 -59 -98 -59 -101 0 -14 259 -127 396
-173 308 -104 565 -145 919 -145 367 0 636 39 847 123 124 50 380 159 386 166
2 2 -21 46 -51 97 -84 145 -572 1006 -907 1603 -167 297 -306 544 -310 548 -3
4 -49 -68 -100 -160z"/>
<path d="M46660 4015 c0 -18 4 -18 50 0 l35 13 -42 1 c-32 1 -43 -3 -43 -14z"/>
<path d="M26703 3831 l-52 -6 61 -30 c125 -60 235 -191 316 -377 45 -103 193
-501 412 -1108 172 -478 218 -593 269 -679 37 -63 146 -179 157 -168 10 10
-211 631 -632 1779 l-219 598 -130 -2 c-71 -1 -153 -4 -182 -7z"/>
<path d="M3396 3709 c-34 -84 -28 -256 10 -306 11 -15 13 8 14 165 0 100 -2
182 -4 182 -2 0 -11 -18 -20 -41z"/>
<path d="M4696 3389 c36 -38 148 -113 192 -127 17 -6 32 -9 32 -7 0 2 -23 40
-51 84 l-52 81 -75 0 -76 0 30 -31z"/>
</g>
</svg>
