<svg width="60" height="35" viewBox="0 0 60 35" fill="none" xmlns="http://www.w3.org/2000/svg">
<path fill-rule="evenodd" clip-rule="evenodd" d="M59.2012 0.80931C60.2663 1.88839 60.2663 3.63793 59.2012 4.71701L46.5842 17.5L59.2012 30.283C60.2663 31.3621 60.2663 33.1116 59.2012 34.1907C58.1361 35.2698 56.4093 35.2698 55.3443 34.1907L40.7988 19.4538C39.7337 18.3748 39.7337 16.6252 40.7988 15.5462L55.3443 0.80931C56.4093 -0.26977 58.1361 -0.26977 59.2012 0.80931Z" fill="#FFDA54"/>
<path fill-rule="evenodd" clip-rule="evenodd" d="M19.2012 0.80931C20.2663 1.88839 20.2663 3.63793 19.2012 4.71701L6.58422 17.5L19.2012 30.283C20.2663 31.3621 20.2663 33.1116 19.2012 34.1907C18.1361 35.2698 16.4093 35.2698 15.3443 34.1907L0.7988 19.4538C-0.266267 18.3748 -0.266267 16.6252 0.7988 15.5462L15.3443 0.80931C16.4093 -0.26977 18.1361 -0.26977 19.2012 0.80931Z" fill="#FFDA54"/>
<path fill-rule="evenodd" clip-rule="evenodd" d="M39.2012 0.80931C40.2663 1.88839 40.2663 3.63793 39.2012 4.71701L26.5842 17.5L39.2012 30.283C40.2663 31.3621 40.2663 33.1116 39.2012 34.1907C38.1361 35.2698 36.4093 35.2698 35.3443 34.1907L20.7988 19.4538C19.7337 18.3748 19.7337 16.6252 20.7988 15.5462L35.3443 0.80931C36.4093 -0.26977 38.1361 -0.26977 39.2012 0.80931Z" fill="#FFDA54"/>
</svg>
